HIERARCHY
ROOT Hips
{
	OFFSET 0.000000 0.000000 0.000000
	CHANNELS 6 Xposition Yposition Zposition Xrotation Yrotation Zrotation
	JOINT LeftUpLeg_virtual
	{
		OFFSET 0.000000 0.000000 0.000000
		CHANNELS 3 Xrotation Yrotation Zrotation
		JOINT LeftUpLeg
		{
			OFFSET 10.205400 -3.823500 0.155100
			CHANNELS 3 Xrotation Yrotation Zrotation
			JOINT LeftLeg
			{
				OFFSET 0.708757 -12.982077 0.567790
				CHANNELS 3 Xrotation Yrotation Zrotation
				JOINT LeftFoot
				{
					OFFSET -0.708756 -10.717838 -2.184338
					CHANNELS 3 Xrotation Yrotation Zrotation
					JOINT LeftToeBase
					{
						OFFSET 0.108149 -7.191104 7.560241
						CHANNELS 3 Xrotation Yrotation Zrotation
						JOINT LeftToe_End
						{
							OFFSET 0.070230 0.081724 4.490308
							CHANNELS 3 Xrotation Yrotation Zrotation
							End Site
							{
								OFFSET 0 0 0
							}
						}
					}
				}
			}
		}
	}
	JOINT RightUpLeg_virtual
	{
		OFFSET 0.000000 0.000000 0.000000
		CHANNELS 3 Xrotation Yrotation Zrotation
		JOINT RightUpLeg
		{
			OFFSET -10.205400 -3.823500 0.005500
			CHANNELS 3 Xrotation Yrotation Zrotation
			JOINT RightLeg
			{
				OFFSET -0.708756 -12.982134 0.610632
				CHANNELS 3 Xrotation Yrotation Zrotation
				JOINT RightFoot
				{
					OFFSET 0.708754 -10.717769 -1.945823
					CHANNELS 3 Xrotation Yrotation Zrotation
					JOINT RightToeBase
					{
						OFFSET -0.108140 -7.191069 7.372968
						CHANNELS 3 Xrotation Yrotation Zrotation
						JOINT RightToe_End
						{
							OFFSET -0.070227 0.081735 4.479403
							CHANNELS 3 Xrotation Yrotation Zrotation
							End Site
							{
								OFFSET 0 0 0
							}
						}
					}
				}
			}
		}
	}
	JOINT Spine_virtual
	{
		OFFSET 0.000000 0.000000 0.000000
		CHANNELS 3 Xrotation Yrotation Zrotation
		JOINT Spine
		{
			OFFSET 0.000000 6.876099 0.125700
			CHANNELS 3 Xrotation Yrotation Zrotation
			JOINT Spine1
			{
				OFFSET 0.000000 5.730043 0.104720
				CHANNELS 3 Xrotation Yrotation Zrotation
				JOINT Spine1_split
				{
					OFFSET 0.000000 5.730043 0.104720
					CHANNELS 3 Xrotation Yrotation Zrotation
					JOINT Spine2
					{
						OFFSET 0.000000 5.730043 0.104720
						CHANNELS 3 Xrotation Yrotation Zrotation
						JOINT Neck_virtual
						{
							OFFSET 0.000000 0.000000 0.000000
							CHANNELS 3 Xrotation Yrotation Zrotation
							JOINT Neck
							{
								OFFSET 0.000000 10.314075 0.188496
								CHANNELS 3 Xrotation Yrotation Zrotation
								JOINT Head
								{
									OFFSET 0.000000 7.643700 -2.377400
									CHANNELS 3 Xrotation Yrotation Zrotation
									JOINT HeadTop_End
									{
										OFFSET 0.000000 43.788605 -13.619600
										CHANNELS 3 Xrotation Yrotation Zrotation
										End Site
										{
											OFFSET 0 0 0
										}
									}
								}
							}
						}
						JOINT LeftShoulder_virtual
						{
							OFFSET 0.000000 0.000000 0.000000
							CHANNELS 3 Xrotation Yrotation Zrotation
							JOINT LeftShoulder
							{
								OFFSET 2.196100 4.412489 0.087492
								CHANNELS 3 Xrotation Yrotation Zrotation
								JOINT LeftShoulder_split
								{
									OFFSET 2.196100 4.412489 0.087492
									CHANNELS 3 Xrotation Yrotation Zrotation
									JOINT LeftArm
									{
										OFFSET 8.771219 -2.981674 -0.026999
										CHANNELS 3 Xrotation Yrotation Zrotation
										JOINT LeftForeArm
										{
											OFFSET 8.512804 0.000000 -0.000000
											CHANNELS 3 Xrotation Yrotation Zrotation
											JOINT LeftHand
											{
												OFFSET 18.484802 0.000000 -0.000000
												CHANNELS 3 Xrotation Yrotation Zrotation
												End Site
												{
													OFFSET 0 0 0
												}
											}
										}
									}
								}
							}
						}
						JOINT RightShoulder_virtual
						{
							OFFSET 0.000000 0.000000 0.000000
							CHANNELS 3 Xrotation Yrotation Zrotation
							JOINT RightShoulder
							{
								OFFSET -2.196100 4.412496 0.070690
								CHANNELS 3 Xrotation Yrotation Zrotation
								JOINT RightShoulder_split
								{
									OFFSET -2.196100 4.412496 0.070690
									CHANNELS 3 Xrotation Yrotation Zrotation
									JOINT RightArm
									{
										OFFSET -8.771282 -2.981682 -0.094208
										CHANNELS 3 Xrotation Yrotation Zrotation
										JOINT RightForeArm
										{
											OFFSET -8.494598 0.000000 0.000000
											CHANNELS 3 Xrotation Yrotation Zrotation
											JOINT RightHand
											{
												OFFSET -18.483803 0.000000 0.000001
												CHANNELS 3 Xrotation Yrotation Zrotation
												End Site
												{
													OFFSET 0 0 0
												}
											}
										}
									}
								}
							}
						}
					}
				}
			}
		}
	}
}
MOTION
Frames: 7
Frame Time: 0.03333333
2.916326 26.072672 58.162964 0.000000 0.000000 0.000000 6.162726 -27.717895 1.086616 19.767372 32.780612 14.210547 45.170220 21.399541 -5.409968 -41.149530 7.997450 -44.532447 -15.024820 -2.240815 -0.777881 0.000000 0.000000 0.000000 8.426485 -22.055137 1.171950 -60.535564 -4.837448 -6.478254 53.490961 7.250153 -4.417394 -1.058412 6.501598 9.237503 -4.238532 3.813555 2.482059 0.000000 0.000000 0.000000 6.301845 -24.279926 2.646068 2.882851 -2.891347 -0.298746 2.935328 -6.631132 0.870045 2.390381 -4.405931 0.570404 0.000000 0.000000 0.000000 3.382745 -6.189231 0.543431 12.715123 1.849379 11.215148 -1.520435 4.553937 -15.808700 0.000000 0.000000 0.000000 4.396209 -7.328040 0.182993 -2.928365 -15.283836 -17.557063 -6.259192 8.517286 -0.097569 -44.835192 -9.586093 -24.695054 -20.215845 -71.221975 9.251299 0.000000 0.000000 0.000000 3.405500 -6.111733 1.696993 -0.352167 -1.143795 -1.109321 -5.008092 -1.187818 -3.505804 -28.207339 42.512716 6.471561 47.520792 30.420570 -20.159962 0.000000 0.000000 0.000000 
2.656919 25.983519 60.168564 0.000000 0.000000 0.000000 9.525646 -31.229462 1.819101 25.514349 33.047563 10.321303 38.314096 24.724641 -3.604364 -40.074475 6.817180 -46.421401 -20.452211 -1.463294 0.116286 0.000000 0.000000 0.000000 11.707208 -26.813096 1.733989 -60.868556 -5.877176 -1.236626 52.912441 6.560222 -3.976095 -4.779859 6.622250 7.747315 -4.422023 2.445045 2.787085 0.000000 0.000000 0.000000 9.279362 -28.937722 2.007833 2.905616 -5.642230 0.001877 3.281481 -10.164273 2.021521 2.174538 -2.769015 0.543533 0.000000 0.000000 0.000000 3.511910 -9.586967 2.001902 9.515155 4.914128 13.125582 1.118899 11.033595 -19.983737 0.000000 0.000000 0.000000 4.552406 -10.785609 1.746434 -4.772216 -20.324614 -18.179356 -6.812867 9.388412 0.259529 -42.082134 -18.090779 -29.333788 -15.125437 -55.258969 10.249927 0.000000 0.000000 0.000000 3.447896 -9.576496 3.136162 -0.081594 -3.481942 5.874193 -4.163526 -1.239370 -3.706809 -18.872829 31.977347 -1.022428 37.969520 23.559194 -8.946283 0.000000 0.000000 0.000000 
2.284441 26.030331 62.099899 0.000000 0.000000 0.000000 12.983117 -33.650109 2.326420 27.734408 32.579596 10.089041 33.769855 27.736358 -1.444613 -33.919809 3.553134 -45.850121 -24.150617 0.434299 -1.890344 0.000000 0.000000 0.000000 14.673922 -30.083937 2.019404 -60.148893 -6.492785 2.828465 53.105055 5.962940 -3.519055 -9.745030 6.792007 5.736288 -2.566309 1.696370 2.609059 0.000000 0.000000 0.000000 11.821501 -32.000119 1.238186 2.893919 -7.731444 0.287753 3.824936 -12.696203 3.053599 1.365263 -1.493225 0.510182 0.000000 0.000000 0.000000 4.125647 -11.983709 3.364961 5.821927 7.476289 14.959702 3.624359 16.061094 -22.931903 0.000000 0.000000 0.000000 4.866446 -13.135895 3.138748 -5.857858 -23.988813 -17.109667 -7.054335 9.043673 0.351649 -40.312381 -26.883946 -34.675798 -12.496729 -40.120039 8.482250 0.000000 0.000000 0.000000 3.584312 -12.081630 4.285356 0.349120 -5.305704 10.505022 -3.058309 -0.884955 -3.033791 -16.046486 23.304305 -2.468626 31.163257 22.805599 -3.226843 0.000000 0.000000 0.000000 
1.852830 26.198742 63.969009 0.000000 0.000000 0.000000 15.754265 -36.042280 2.415510 24.904478 32.083789 14.695488 34.870653 30.022346 -0.148808 -21.129439 -2.417437 -41.798907 -24.694535 3.646673 -7.373217 0.000000 0.000000 0.000000 16.847300 -32.671998 1.859019 -58.285392 -6.616298 5.734690 53.927875 5.879116 -3.103280 -14.494368 7.336503 4.385854 -0.658724 1.501952 1.776209 0.000000 0.000000 0.000000 13.407807 -34.479119 0.297416 2.871088 -8.997298 0.646094 4.350622 -14.146129 3.747492 0.659079 -0.903167 0.432094 0.000000 0.000000 0.000000 4.917373 -13.303057 4.306668 2.089484 9.562450 16.679488 5.543627 19.823828 -24.599944 0.000000 0.000000 0.000000 5.095546 -14.371478 4.082873 -6.144559 -26.262279 -14.717801 -6.691693 7.866705 0.017346 -41.041681 -34.447649 -41.088673 -10.804255 -28.724388 5.780100 0.000000 0.000000 0.000000 3.679439 -13.529115 4.957137 0.722492 -6.194553 12.829886 -1.588245 -0.276542 -1.889982 -16.536580 16.971553 -1.225446 24.757450 26.230604 -0.330926 0.000000 0.000000 0.000000 
1.470333 26.451166 65.722878 0.000000 0.000000 0.000000 17.211122 -39.159090 2.131176 16.548085 30.907723 23.492547 42.945238 31.430994 -0.729989 -2.719071 -8.699578 -32.725762 -20.845203 7.462945 -16.587312 0.000000 0.000000 0.000000 17.717113 -35.260486 1.285106 -55.083365 -6.148175 7.673889 54.237351 6.695635 -2.829169 -18.138544 8.245837 4.492482 0.008494 1.614525 0.513974 0.000000 0.000000 0.000000 13.733105 -37.109818 -0.807497 2.930877 -9.429994 1.077412 4.676193 -14.624726 3.983985 0.281452 -0.822951 0.841959 0.000000 0.000000 0.000000 5.559150 -13.705713 4.676490 -1.243552 11.308079 18.208250 6.726624 22.632838 -25.036897 0.000000 0.000000 0.000000 5.027423 -14.678925 4.372262 -5.827992 -27.221173 -11.783818 -5.697478 6.364762 -0.775152 -44.419237 -39.359269 -47.977537 -9.627004 -21.340974 2.898939 0.000000 0.000000 0.000000 3.643009 -14.002556 5.119859 0.947713 -5.823783 13.218012 -0.161375 -0.317772 0.021904 -18.342244 12.715206 1.103926 17.873686 29.749326 1.429162 0.000000 0.000000 0.000000 
1.158607 26.755011 67.370117 0.000000 0.000000 0.000000 17.013320 -42.575455 1.362373 4.506644 27.461348 34.372285 55.324584 31.282164 -2.367424 15.778154 -11.275985 -19.988523 -13.825486 10.144933 -27.693869 0.000000 0.000000 0.000000 17.104231 -38.020391 0.341018 -50.367529 -4.919173 8.845944 53.261805 8.174780 -2.832788 -21.361065 9.286880 5.913688 -0.382585 1.817985 -0.678590 0.000000 0.000000 0.000000 12.850236 -40.135814 -2.004176 3.162281 -9.225860 1.568142 4.707699 -14.359573 3.804841 0.493709 -1.258417 1.143508 0.000000 0.000000 0.000000 5.766781 -13.432545 4.449712 -3.937847 12.687478 19.306904 7.022583 24.609762 -24.349894 0.000000 0.000000 0.000000 4.685724 -14.293734 4.062548 -5.132183 -27.122548 -8.987224 -4.563216 4.439585 -1.457592 -49.149123 -41.250494 -53.963013 -8.873640 -17.040554 0.300982 0.000000 0.000000 0.000000 3.415668 -13.735885 4.853903 1.074770 -4.528136 12.355297 1.209283 -1.118848 1.774377 -20.392097 10.115379 3.583678 10.495975 29.431569 2.694468 0.000000 0.000000 0.000000 
0.895739 27.045176 69.035736 0.000000 0.000000 0.000000 15.353888 -45.852839 0.421396 -8.035013 21.458894 43.576470 68.162959 28.908622 -3.284615 27.385732 -10.485214 -9.245336 -7.508062 11.205741 -36.625943 0.000000 0.000000 0.000000 15.342309 -40.963182 -0.594706 -44.465440 -2.953246 9.196654 50.757171 9.507063 -2.904768 -24.778077 10.073839 7.362138 -1.010002 1.883384 -1.288392 0.000000 0.000000 0.000000 10.870990 -43.564166 -3.113486 3.580900 -8.656420 2.030216 4.451065 -13.668978 3.296981 1.055879 -1.311610 1.522007 0.000000 0.000000 0.000000 5.446922 -12.762948 3.761322 -5.683163 13.771208 19.739598 6.666817 25.792826 -22.814999 0.000000 0.000000 0.000000 4.209427 -13.549295 3.350227 -4.218354 -26.231526 -6.496752 -3.410041 2.556353 -2.174696 -53.745799 -41.578176 -57.627590 -8.252774 -14.863738 -1.720119 0.000000 0.000000 0.000000 3.017242 -13.014995 4.297797 1.181684 -2.996245 10.812335 2.687627 -2.091257 2.698894 -23.003059 8.547554 5.442061 3.390201 24.978652 3.130268 0.000000 0.000000 0.000000 
